<svg xmlns="http://www.w3.org/2000/svg" width="40" height="40" viewBox="0 0 24 24"><path fill="#f44336" d="M20 6.677v2.36h-1.39a2.36 2.36 0 0 0-2.36-2.36z"/><path fill="#4caf50" d="M11.666 9.037h2.36v1.39a2.36 2.36 0 0 0 2.36 2.36h2.614v-5.467c0-2.614-2.127-4.74-4.74-4.74h-5.466v2.613a4.74 4.74 0 0 1 2.862 3.844"/><path fill="#ff9800" d="M9.306 12.386v-2.36a1.008 1.008 0 0 1 1.008-1.008h1.352v-2.613H6.199c-2.614 0-4.74 2.126-4.74 4.74v5.467h2.614c2.08 0 3.882-1.352 4.507-3.226"/><path fill="#2196f3" d="M16.386 12.776a2.36 2.36 0 0 0-2.36-2.36h-2.36v4.72a2.36 2.36 0 0 0 2.36 2.36h2.613v-2.106c0-1.488-.95-2.614-2.613-2.614"/><path fill="#2196f3" d="M12.986 21.43v-2.614a4.74 4.74 0 0 1-2.862-3.844H7.764v2.36c0 2.614 2.126 4.74 4.74 4.74z"/></svg>