<svg xmlns="http://www.w3.org/2000/svg" width="40" height="40" viewBox="0 0 24 24"><path fill="#6739B7" d="M19.06 2.937c-1.348-.9-3.04-1.437-4.823-1.437c-4.838 0-8.76 3.922-8.76 8.76c0 1.28.277 2.492.77 3.593c.125.266.015.586-.25.719l-1.922.968c-.266.133-.594.03-.719-.25c-1.125-2.14-1.766-4.58-1.766-7.21c0-6.19 5.03-11.22 11.22-11.22c2.437 0 4.7.796 6.546 2.155c.235.172.282.515.094.735l-1.36 1.765c-.187.22-.53.266-.75.094zm-13.623 8.36c-.125-.266-.437-.39-.718-.266l-1.922.953c-.266.133-.36.469-.25.719c2.313 4.67 6.968 7.86 12.28 7.86c2.454 0 4.735-.797 6.578-2.156c.22-.172.266-.516.094-.735l-1.36-1.765c-.187-.22-.53-.266-.75-.094c-1.348.9-3.04 1.437-4.823 1.437c-3.953 0-7.39-2.61-8.41-6.14z"/><path fill="#6739B7" d="M12.98 12.063c0-3.344-3.313-5.063-5.266-5.063c-1.03 0-2.03.36-2.828 1.03l-.015.016c-.235.203-.266.562-.063.796l.938 1.094c.203.234.562.265.796.062c.485-.422 1.094-.656 1.766-.656c1.03 0 2.25.968 2.25 2.718v.016c0 1.75-1.22 2.718-2.25 2.718c-.672 0-1.28-.234-1.766-.656a.54.54 0 0 0-.796.062l-.938 1.094c-.203.234-.172.593.063.796l.015.016c.797.67 1.797 1.03 2.828 1.03c1.953 0 5.266-1.72 5.266-5.063z"/></svg>